<svg width="24" height="24" viewBox="0 0 24 24" fill="none" xmlns="http://www.w3.org/2000/svg">
<path fill-rule="evenodd" clip-rule="evenodd" d="M16.9497 8.46442C17.3403 8.0739 17.3403 7.44074 16.9497 7.05021C16.5592 6.65969 15.9261 6.65969 15.5355 7.05021L12 10.5857L8.46447 7.05021C8.07394 6.65969 7.44078 6.65969 7.05025 7.05021C6.65973 7.44074 6.65973 8.0739 7.05025 8.46442L10.5858 12L7.05025 15.5355C6.65973 15.926 6.65973 16.5592 7.05025 16.9497C7.44078 17.3402 8.07394 17.3402 8.46447 16.9497L12 13.4142L15.5355 16.9497C15.9261 17.3402 16.5592 17.3402 16.9497 16.9497C17.3403 16.5592 17.3403 15.926 16.9497 15.5355L13.4142 12L16.9497 8.46442Z" fill="#1B1D21"/>
</svg>
